<svg width="24" height="24" viewBox="0 0 24 24" fill="none" xmlns="http://www.w3.org/2000/svg">
<path d="M20.483 2.98584C20.12 2.89684 19.7074 2.91085 19.2018 3.04785C16.2726 3.84185 4.62866 7.62584 3.67046 8.04984C2.62616 8.51184 2.02356 9.32584 2.01426 10.3938C2.00186 11.8218 3.15286 12.9428 4.51426 12.8948C4.55806 12.8938 6.24256 12.9169 7.20176 12.9269C7.20176 12.9269 8.05796 17.2079 8.07866 17.2589C8.32856 17.8729 8.91476 18.0559 9.42046 17.8349L12.2643 16.5838C12.5862 16.9008 14.7506 18.9919 14.983 19.1789C15.6756 19.7349 16.2741 19.9099 17.0143 19.9289C18.206 19.9599 19.247 19.2589 19.7955 18.1159C20.1398 17.3989 21.7445 7.35785 21.8893 6.36185C22.1192 4.78085 22.0672 4.15985 21.4205 3.51685C21.1606 3.25885 20.8461 3.07384 20.483 2.98584ZM20.0142 4.92484C20.0142 4.92484 20.0628 5.10184 19.9205 6.07984C19.4114 9.58184 18.2049 16.7468 17.9518 17.3338C17.7789 17.7358 17.4324 17.9388 17.0455 17.9278C16.705 17.9188 16.5355 17.8589 16.233 17.6159C16.0774 17.4909 15.3773 16.8259 14.3893 15.8649C14.3769 15.8529 12.4187 13.9418 12.4187 13.9418C12.2278 13.7518 12.0484 13.6388 11.6725 13.6348C11.4539 13.6348 11.1654 13.8009 11.1654 13.8009L9.66156 15.0739L9.13926 12.5198L15.4205 9.83186C15.9279 9.61386 16.17 9.02584 15.9518 8.51884C15.7337 8.01084 15.1467 7.76885 14.6393 7.98685L7.82676 10.9259C7.43886 10.9239 4.54836 10.8908 4.45176 10.8948C4.22926 10.9018 4.01176 10.6838 4.01426 10.3938C4.01626 10.1618 4.11856 10.0239 4.48296 9.86286C5.32756 9.48886 16.8309 5.75783 19.6701 4.98883C19.9379 4.91583 20.0142 4.92484 20.0142 4.92484Z" fill="#989898"/>
</svg>
