<svg viewBox="0 0 24 24" xml:space="preserve" xmlns="http://www.w3.org/2000/svg" enable-background="new 0 0 24 24"><g id="_icons"><path d="M20.5 6.4c-.7-.9-1.7-1.4-2.8-1.4H6.2L6 3.8c-.1-.4-.5-.8-1-.8H3c-.6 0-1 .4-1 1s.4 1 1 1h1.2l.2 1.2 1.2 7 .2 1.2c.2 1.5 1.5 2.6 3 2.6h9.6c.6 0 1-.4 1-1s-.4-1-1-1H8.8c-.5 0-1-.4-1.1-.9V14h9.4c1.6 0 2.9-1 3.4-2.5l.6-2c.3-1.1 0-2.2-.6-3.1zm-1.4 2.5-.6 2c-.2.6-.8 1.1-1.4 1.1H7.3l-.8-5h11.2c.5 0 .9.2 1.2.6s.4.9.2 1.3z" fill="#deab1f" class="fill-000000"></path><circle cx="8.5" cy="19.5" r="1.5" fill="#deab1f" class="fill-000000"></circle><circle cx="16.5" cy="19.5" r="1.5" fill="#deab1f" class="fill-000000"></circle></g></svg>